<svg xmlns="http://www.w3.org/2000/svg" xmlns:xlink="http://www.w3.org/1999/xlink" width="3780" zoomAndPan="magnify" viewBox="0 0 2835 1417.499962" height="1890" preserveAspectRatio="xMidYMid meet" version="1.0"><defs><g/><clipPath id="e4c58adcb9"><path d="M 343 1.0625 L 652 1.0625 L 652 567 L 343 567 Z M 343 1.0625 " clip-rule="nonzero"/></clipPath><clipPath id="74df850c42"><path d="M 1.238281 1.0625 L 310 1.0625 L 310 565 L 1.238281 565 Z M 1.238281 1.0625 " clip-rule="nonzero"/></clipPath><clipPath id="1ce42db841"><rect x="0" width="1812" y="0" height="568"/></clipPath></defs><g transform="matrix(1, 0, 0, 1, 509, 481)"><g clip-path="url(#1ce42db841)"><g clip-path="url(#e4c58adcb9)"><path fill="#ed952b" d="M 343.597656 4.480469 C 353.648438 16.542969 363.746094 43.75 360.351562 105.027344 C 360.320312 105.660156 360.601562 106.28125 361.117188 106.664062 C 371.878906 114.53125 485.015625 197.273438 511.910156 213.421875 C 540.167969 230.367188 534.511719 258.625 519.441406 264.277344 C 505.578125 269.472656 382.492188 218.871094 362.90625 210.75 C 361.648438 210.234375 360.277344 211.148438 360.277344 212.507812 L 360.277344 300.058594 C 360.277344 312.296875 400.769531 337.734375 400.769531 351.859375 L 400.769531 352.953125 C 400.769531 365.351562 388.074219 373.707031 376.691406 368.804688 L 356.160156 359.964844 C 356.160156 360.054688 356.160156 360.140625 356.160156 360.230469 C 356.160156 361.707031 355.921875 363.125 355.507812 364.453125 C 355.183594 365.484375 355.714844 366.59375 356.765625 366.902344 C 365.945312 369.707031 372.632812 378.253906 372.632812 388.351562 C 372.632812 389.058594 372.589844 389.769531 372.53125 390.449219 C 372.558594 390.449219 372.601562 390.449219 372.632812 390.449219 C 385.019531 390.449219 395.070312 400.484375 395.070312 412.886719 C 395.070312 416.339844 394.273438 419.601562 392.871094 422.523438 C 393.59375 422.453125 394.332031 422.40625 395.070312 422.40625 C 406.910156 422.40625 416.59375 431.574219 417.449219 443.191406 C 417.523438 444.105469 418.277344 444.832031 419.191406 444.890625 C 431.992188 445.671875 442.398438 455.3125 444.332031 467.769531 C 444.464844 468.625 445.113281 469.277344 445.96875 469.410156 C 457.320312 471.136719 466.5625 479.226562 470.003906 489.914062 C 470.285156 490.769531 471.066406 491.316406 471.964844 491.273438 C 472.601562 491.242188 473.234375 491.210938 473.871094 491.210938 C 493.5625 491.210938 509.742188 506.195312 511.644531 525.386719 C 511.734375 526.214844 512.308594 526.878906 513.121094 527.070312 C 529.90625 530.996094 542.394531 546.054688 542.394531 564.035156 C 542.394531 564.34375 542.394531 564.652344 542.394531 564.964844 C 542.351562 566.632812 544.328125 567.5625 545.554688 566.425781 C 610.773438 506.949219 651.722656 421.285156 651.722656 326.054688 C 651.722656 152.707031 516.105469 11.050781 345.191406 1.351562 C 343.539062 1.265625 342.5625 3.183594 343.625 4.453125 Z M 343.597656 4.480469 " fill-opacity="1" fill-rule="nonzero"/></g><g clip-path="url(#74df850c42)"><path fill="#fecc02" d="M 105.117188 564.046875 C 105.117188 546.066406 117.605469 531.027344 134.390625 527.085938 C 135.203125 526.890625 135.792969 526.226562 135.867188 525.402344 C 137.769531 506.210938 153.949219 491.226562 173.640625 491.226562 C 174.277344 491.226562 174.910156 491.242188 175.546875 491.285156 C 176.433594 491.332031 177.230469 490.785156 177.507812 489.929688 C 180.949219 479.242188 190.191406 471.152344 201.542969 469.425781 C 202.398438 469.292969 203.046875 468.640625 203.179688 467.785156 C 205.113281 455.339844 215.523438 445.6875 228.320312 444.90625 C 229.234375 444.84375 229.988281 444.121094 230.0625 443.207031 C 230.902344 431.589844 240.601562 422.421875 252.441406 422.421875 C 253.179688 422.421875 253.917969 422.464844 254.640625 422.539062 C 253.253906 419.617188 252.441406 416.355469 252.441406 412.902344 C 252.441406 400.515625 262.480469 390.460938 274.878906 390.460938 C 274.910156 390.460938 274.953125 390.460938 274.984375 390.460938 C 274.921875 389.769531 274.878906 389.074219 274.878906 388.367188 C 274.878906 378.253906 281.566406 369.722656 290.75 366.917969 C 291.78125 366.605469 292.328125 365.515625 292.003906 364.480469 C 292.003906 364.4375 291.972656 364.40625 291.972656 364.363281 C 291.632812 363.257812 290.453125 362.636719 289.375 363.09375 L 276.121094 368.792969 C 264.722656 373.691406 252.042969 365.335938 252.042969 352.9375 L 252.042969 351.84375 C 252.042969 337.71875 292.535156 312.296875 292.535156 300.046875 L 292.535156 212.492188 C 292.535156 211.132812 291.160156 210.21875 289.90625 210.734375 C 270.316406 218.855469 147.234375 269.457031 133.371094 264.261719 C 118.300781 258.609375 112.660156 230.355469 140.898438 213.40625 C 167.796875 197.273438 280.945312 114.53125 291.691406 106.648438 C 292.210938 106.265625 292.492188 105.644531 292.460938 105.011719 C 289.082031 43.75 299.175781 16.542969 309.214844 4.480469 C 310.277344 3.210938 309.304688 1.277344 307.652344 1.382812 C 136.765625 11.125 1.207031 152.765625 1.207031 326.085938 C 1.207031 420.238281 41.226562 505.015625 105.160156 564.417969 C 105.160156 564.300781 105.148438 564.179688 105.148438 564.0625 Z M 105.117188 564.046875 " fill-opacity="1" fill-rule="nonzero"/></g><g fill="#000000" fill-opacity="1"><g transform="translate(733.036765, 455.799746)"><g><path d="M 94.484375 1.5 C 86.765625 1.5 79.976562 -0.488281 74.125 -4.46875 C 68.28125 -8.457031 65.484375 -14.4375 65.734375 -22.40625 C 66.222656 -36.351562 67.273438 -51.789062 68.890625 -68.71875 C 70.515625 -85.644531 72.445312 -102.882812 74.6875 -120.4375 C 76.925781 -137.988281 79.226562 -154.851562 81.59375 -171.03125 C 83.957031 -187.21875 86.140625 -201.660156 88.140625 -214.359375 C 83.648438 -214.859375 79.289062 -215.234375 75.0625 -215.484375 C 70.832031 -215.734375 66.972656 -215.859375 63.484375 -215.859375 C 53.023438 -215.859375 43.625 -214.859375 35.28125 -212.859375 C 26.945312 -210.867188 19.914062 -207.382812 14.1875 -202.40625 C 14.1875 -218.09375 15.492188 -230.851562 18.109375 -240.6875 C 20.722656 -250.519531 25.578125 -257.675781 32.671875 -262.15625 C 39.773438 -266.644531 50.171875 -268.890625 63.859375 -268.890625 C 73.816406 -268.890625 84.957031 -268.078125 97.28125 -266.453125 C 109.601562 -264.835938 122.113281 -263.15625 134.8125 -261.40625 C 147.507812 -259.664062 159.335938 -258.796875 170.296875 -258.796875 C 179.253906 -258.796875 187.28125 -259.664062 194.375 -261.40625 C 201.476562 -263.15625 206.894531 -266.269531 210.625 -270.75 C 216.101562 -269.007812 220.335938 -265.210938 223.328125 -259.359375 C 226.316406 -253.515625 227.8125 -247.101562 227.8125 -240.125 C 227.8125 -233.90625 226.441406 -227.867188 223.703125 -222.015625 C 220.960938 -216.160156 216.601562 -211.304688 210.625 -207.453125 C 204.65625 -203.597656 196.566406 -201.671875 186.359375 -201.671875 C 181.617188 -201.671875 175.828125 -202.101562 168.984375 -202.96875 C 162.140625 -203.84375 154.859375 -204.773438 147.140625 -205.765625 C 144.398438 -190.828125 141.597656 -172.960938 138.734375 -152.171875 C 135.867188 -131.390625 133.503906 -109.046875 131.640625 -85.140625 C 129.773438 -61.242188 128.59375 -36.972656 128.09375 -12.328125 C 123.613281 -7.597656 118.320312 -4.109375 112.21875 -1.859375 C 106.125 0.378906 100.210938 1.5 94.484375 1.5 Z M 94.484375 1.5 "/></g></g></g><g fill="#000000" fill-opacity="1"><g transform="translate(911.173167, 455.799746)"><g><path d="M 54.890625 1.5 C 45.929688 1.5 37.96875 -2.171875 31 -9.515625 C 24.03125 -16.867188 20.546875 -27.265625 20.546875 -40.703125 C 20.546875 -47.179688 21.289062 -54.523438 22.78125 -62.734375 C 24.269531 -70.953125 26.007812 -79.351562 28 -87.9375 C 30 -96.53125 31.742188 -104.625 33.234375 -112.21875 C 34.734375 -119.8125 35.484375 -126.097656 35.484375 -131.078125 C 35.484375 -136.304688 34.546875 -140.476562 32.671875 -143.59375 C 30.804688 -146.707031 28.378906 -148.265625 25.390625 -148.265625 C 20.660156 -148.265625 15.804688 -145.023438 10.828125 -138.546875 L 8.59375 -140.046875 C 8.34375 -144.023438 9.210938 -148.753906 11.203125 -154.234375 C 13.191406 -159.710938 16.300781 -165.003906 20.53125 -170.109375 C 24.769531 -175.210938 30.1875 -179.503906 36.78125 -182.984375 C 43.382812 -186.472656 51.164062 -188.21875 60.125 -188.21875 C 73.320312 -188.21875 82.90625 -184.421875 88.875 -176.828125 C 94.851562 -169.234375 97.84375 -160.082031 97.84375 -149.375 C 97.84375 -147.632812 97.78125 -145.832031 97.65625 -143.96875 C 97.53125 -142.101562 97.34375 -140.296875 97.09375 -138.546875 C 106.0625 -154.734375 115.460938 -167.117188 125.296875 -175.703125 C 135.128906 -184.296875 144.28125 -188.59375 152.75 -188.59375 C 160.707031 -188.59375 166.550781 -185.476562 170.28125 -179.25 C 174.019531 -173.03125 175.890625 -165.5625 175.890625 -156.84375 C 175.890625 -148.882812 174.332031 -140.796875 171.21875 -132.578125 C 168.113281 -124.359375 163.507812 -117.570312 157.40625 -112.21875 C 151.3125 -106.863281 143.90625 -104.3125 135.1875 -104.5625 L 133.703125 -105.3125 C 133.453125 -111.789062 131.332031 -116.894531 127.34375 -120.625 C 123.363281 -124.363281 118.882812 -126.234375 113.90625 -126.234375 C 107.175781 -126.234375 100.882812 -122.867188 95.03125 -116.140625 C 89.1875 -109.421875 86.265625 -99.710938 86.265625 -87.015625 C 86.265625 -79.296875 87.132812 -70.953125 88.875 -61.984375 C 90.625 -53.023438 91.5 -45.4375 91.5 -39.21875 C 91.5 -31.75 89.753906 -24.898438 86.265625 -18.671875 C 82.785156 -12.453125 78.304688 -7.535156 72.828125 -3.921875 C 67.347656 -0.304688 61.367188 1.5 54.890625 1.5 Z M 54.890625 1.5 "/></g></g></g><g fill="#000000" fill-opacity="1"><g transform="translate(1078.853036, 455.799746)"><g><path d="M 91.5 2.609375 C 73.320312 2.609375 58.253906 -1.0625 46.296875 -8.40625 C 34.347656 -15.75 25.382812 -25.457031 19.40625 -37.53125 C 13.4375 -49.601562 10.453125 -62.613281 10.453125 -76.5625 C 10.453125 -89.75 13.003906 -103.003906 18.109375 -116.328125 C 23.210938 -129.648438 30.679688 -141.785156 40.515625 -152.734375 C 50.347656 -163.691406 62.296875 -172.53125 76.359375 -179.25 C 90.429688 -185.976562 106.304688 -189.34375 123.984375 -189.34375 C 145.890625 -189.34375 161.882812 -184.425781 171.96875 -174.59375 C 182.050781 -164.757812 187.09375 -152.867188 187.09375 -138.921875 C 187.09375 -126.972656 183.914062 -115.957031 177.5625 -105.875 C 171.21875 -95.789062 162.816406 -87.695312 152.359375 -81.59375 C 141.910156 -75.5 130.460938 -72.453125 118.015625 -72.453125 C 111.535156 -72.453125 104.9375 -73.445312 98.21875 -75.4375 C 91.5 -77.425781 84.898438 -80.539062 78.421875 -84.78125 C 79.671875 -69.34375 84.15625 -58.132812 91.875 -51.15625 C 99.59375 -44.1875 108.800781 -40.703125 119.5 -40.703125 C 126.96875 -40.703125 134.4375 -42.132812 141.90625 -45 C 149.375 -47.863281 156.28125 -51.597656 162.625 -56.203125 C 168.976562 -60.804688 173.898438 -65.722656 177.390625 -70.953125 L 180 -69.09375 C 180 -56.144531 177.320312 -45.125 171.96875 -36.03125 C 166.625 -26.945312 159.59375 -19.539062 150.875 -13.8125 C 142.15625 -8.09375 132.628906 -3.925781 122.296875 -1.3125 C 111.972656 1.300781 101.707031 2.609375 91.5 2.609375 Z M 100.078125 -98.21875 C 108.046875 -98.21875 114.519531 -100.519531 119.5 -105.125 C 124.476562 -109.726562 128.210938 -115.140625 130.703125 -121.359375 C 133.191406 -127.585938 134.4375 -133.066406 134.4375 -137.796875 C 134.4375 -143.523438 132.816406 -148.316406 129.578125 -152.171875 C 126.347656 -156.035156 121.867188 -157.96875 116.140625 -157.96875 C 111.660156 -157.96875 106.742188 -156.347656 101.390625 -153.109375 C 96.035156 -149.878906 91.242188 -144.34375 87.015625 -136.5 C 82.785156 -128.65625 80.046875 -117.757812 78.796875 -103.8125 C 86.765625 -100.082031 93.859375 -98.21875 100.078125 -98.21875 Z M 100.078125 -98.21875 "/></g></g></g><g fill="#000000" fill-opacity="1"><g transform="translate(1273.42146, 455.799746)"><g><path d="M 66.84375 1.5 C 52.40625 1.5 40.953125 -2.296875 32.484375 -9.890625 C 24.023438 -17.484375 19.796875 -29.25 19.796875 -45.1875 C 19.796875 -54.394531 20.976562 -64.226562 23.34375 -74.6875 C 25.707031 -85.144531 28.007812 -94.484375 30.25 -102.703125 C 32.488281 -110.671875 34.289062 -117.640625 35.65625 -123.609375 C 37.03125 -129.585938 37.71875 -134.195312 37.71875 -137.4375 C 37.71875 -141.414062 36.84375 -144.273438 35.09375 -146.015625 C 33.351562 -147.765625 31.238281 -148.640625 28.75 -148.640625 C 22.78125 -148.640625 17.800781 -145.773438 13.8125 -140.046875 L 12.328125 -141.53125 C 12.578125 -150 15.3125 -157.78125 20.53125 -164.875 C 25.757812 -171.96875 32.484375 -177.628906 40.703125 -181.859375 C 48.921875 -186.097656 57.265625 -188.21875 65.734375 -188.21875 C 75.191406 -188.21875 83.28125 -185.414062 90 -179.8125 C 96.71875 -174.21875 99.832031 -165.441406 99.34375 -153.484375 C 99.09375 -148.253906 98.15625 -141.65625 96.53125 -133.6875 C 94.914062 -125.726562 92.738281 -116.269531 90 -105.3125 C 88.257812 -98.34375 86.453125 -90.4375 84.578125 -81.59375 C 82.710938 -72.757812 81.78125 -64.734375 81.78125 -57.515625 C 81.78125 -52.035156 82.648438 -47.675781 84.390625 -44.4375 C 86.140625 -41.207031 89.003906 -39.59375 92.984375 -39.59375 C 98.210938 -39.59375 104 -42.515625 110.34375 -48.359375 C 116.695312 -54.210938 122.238281 -63.796875 126.96875 -77.109375 C 131.695312 -90.429688 134.4375 -108.171875 135.1875 -130.328125 C 135.9375 -147.265625 134.816406 -159.59375 131.828125 -167.3125 L 131.828125 -169.171875 C 134.066406 -172.660156 137.488281 -176.019531 142.09375 -179.25 C 146.695312 -182.488281 151.863281 -185.164062 157.59375 -187.28125 C 163.320312 -189.40625 168.675781 -190.46875 173.65625 -190.46875 C 181.625 -190.46875 188.40625 -186.609375 194 -178.890625 C 199.601562 -171.171875 202.035156 -157.722656 201.296875 -138.546875 C 200.796875 -120.128906 197.492188 -103.445312 191.390625 -88.5 C 185.296875 -73.5625 177.390625 -60.488281 167.671875 -49.28125 C 157.960938 -38.082031 147.320312 -28.75 135.75 -21.28125 C 124.175781 -13.8125 112.410156 -8.144531 100.453125 -4.28125 C 88.503906 -0.425781 77.300781 1.5 66.84375 1.5 Z M 66.84375 1.5 "/></g></g></g><g fill="#000000" fill-opacity="1"><g transform="translate(1480.687237, 455.799746)"><g><path d="M 81.40625 -199.796875 C 71.445312 -199.796875 63.289062 -202.84375 56.9375 -208.9375 C 50.59375 -215.039062 47.421875 -222.703125 47.421875 -231.921875 C 47.421875 -241.878906 51.15625 -250.46875 58.625 -257.6875 C 66.09375 -264.90625 75.179688 -268.515625 85.890625 -268.515625 C 95.847656 -268.515625 104 -265.398438 110.34375 -259.171875 C 116.695312 -252.953125 119.875 -245.234375 119.875 -236.015625 C 119.875 -226.054688 116.140625 -217.53125 108.671875 -210.4375 C 101.203125 -203.34375 92.113281 -199.796875 81.40625 -199.796875 Z M 55.265625 1.5 C 45.554688 1.5 36.84375 -1.921875 29.125 -8.765625 C 21.40625 -15.617188 17.546875 -26.640625 17.546875 -41.828125 C 17.546875 -50.535156 18.726562 -58.6875 21.09375 -66.28125 C 23.457031 -73.875 26.195312 -81.28125 29.3125 -88.5 C 32.425781 -95.726562 35.164062 -102.765625 37.53125 -109.609375 C 39.894531 -116.453125 41.078125 -123.238281 41.078125 -129.96875 C 41.078125 -135.9375 40.082031 -140.226562 38.09375 -142.84375 C 36.101562 -145.457031 33.738281 -146.765625 31 -146.765625 C 26.757812 -146.765625 22.648438 -144.023438 18.671875 -138.546875 L 16.0625 -140.046875 C 17.050781 -150.003906 20.222656 -158.53125 25.578125 -165.625 C 30.929688 -172.71875 37.53125 -178.253906 45.375 -182.234375 C 53.21875 -186.222656 61 -188.21875 68.71875 -188.21875 C 78.175781 -188.21875 86.390625 -185.164062 93.359375 -179.0625 C 100.328125 -172.96875 103.8125 -163.070312 103.8125 -149.375 C 103.8125 -141.164062 102.628906 -132.515625 100.265625 -123.421875 C 97.898438 -114.335938 95.160156 -105.3125 92.046875 -96.34375 C 88.941406 -87.382812 86.207031 -79.046875 83.84375 -71.328125 C 81.476562 -63.609375 80.296875 -57.007812 80.296875 -51.53125 C 80.296875 -46.800781 81.226562 -43.441406 83.09375 -41.453125 C 84.957031 -39.460938 87.007812 -38.46875 89.25 -38.46875 C 91.488281 -38.46875 93.664062 -39.148438 95.78125 -40.515625 C 97.90625 -41.890625 99.460938 -43.445312 100.453125 -45.1875 L 103.078125 -44.4375 C 103.078125 -35.226562 100.648438 -27.195312 95.796875 -20.34375 C 90.941406 -13.5 84.898438 -8.144531 77.671875 -4.28125 C 70.453125 -0.425781 62.984375 1.5 55.265625 1.5 Z M 55.265625 1.5 "/></g></g></g><g fill="#000000" fill-opacity="1"><g transform="translate(1600.565227, 455.799746)"><g><path d="M 147.140625 1.875 C 138.421875 1.875 130.828125 -0.988281 124.359375 -6.71875 C 117.890625 -12.445312 114.65625 -21.785156 114.65625 -34.734375 C 114.65625 -35.972656 114.65625 -37.210938 114.65625 -38.453125 C 114.65625 -39.703125 114.78125 -40.953125 115.03125 -42.203125 C 107.550781 -27.265625 99.144531 -16.242188 89.8125 -9.140625 C 80.476562 -2.046875 71.082031 1.5 61.625 1.5 C 52.90625 1.5 44.6875 -1.550781 36.96875 -7.65625 C 29.25 -13.757812 23.023438 -22.785156 18.296875 -34.734375 C 13.566406 -46.679688 11.203125 -61.117188 11.203125 -78.046875 C 11.203125 -95.472656 13.628906 -111.03125 18.484375 -124.71875 C 23.335938 -138.414062 29.75 -149.992188 37.71875 -159.453125 C 45.6875 -168.921875 54.398438 -176.082031 63.859375 -180.9375 C 73.316406 -185.789062 82.53125 -188.21875 91.5 -188.21875 C 101.457031 -188.21875 110.414062 -185.164062 118.375 -179.0625 C 126.34375 -172.96875 131.820312 -163.320312 134.8125 -150.125 C 135.5625 -154.363281 136.125 -158.222656 136.5 -161.703125 C 136.875 -165.191406 137.0625 -167.554688 137.0625 -168.796875 C 137.3125 -175.523438 140.734375 -180.503906 147.328125 -183.734375 C 153.921875 -186.972656 161.203125 -188.59375 169.171875 -188.59375 C 176.140625 -188.59375 182.734375 -187.222656 188.953125 -184.484375 C 195.179688 -181.742188 199.421875 -177.140625 201.671875 -170.671875 L 202.40625 -168.421875 C 199.425781 -161.703125 196.441406 -153.613281 193.453125 -144.15625 C 190.460938 -134.695312 187.722656 -124.800781 185.234375 -114.46875 C 182.742188 -104.132812 180.75 -94.050781 179.25 -84.21875 C 177.757812 -74.382812 177.015625 -65.734375 177.015625 -58.265625 C 177.015625 -50.046875 177.882812 -44.378906 179.625 -41.265625 C 181.375 -38.148438 183.492188 -36.59375 185.984375 -36.59375 C 190.210938 -36.59375 194.070312 -39.582031 197.5625 -45.5625 L 200.546875 -44.0625 C 200.546875 -35.601562 197.804688 -27.882812 192.328125 -20.90625 C 186.847656 -13.9375 180 -8.394531 171.78125 -4.28125 C 163.570312 -0.175781 155.359375 1.875 147.140625 1.875 Z M 86.265625 -45.5625 C 92.742188 -45.5625 99.898438 -51.347656 107.734375 -62.921875 C 115.578125 -74.503906 122.363281 -91.125 128.09375 -112.78125 C 128.59375 -115.019531 129.085938 -117.195312 129.578125 -119.3125 C 130.078125 -121.4375 130.453125 -123.492188 130.703125 -125.484375 C 126.722656 -134.691406 122.550781 -141.222656 118.1875 -145.078125 C 113.832031 -148.941406 109.539062 -150.875 105.3125 -150.875 C 99.09375 -150.875 93.304688 -147.570312 87.953125 -140.96875 C 82.597656 -134.375 78.238281 -126.097656 74.875 -116.140625 C 71.507812 -106.179688 69.828125 -96.222656 69.828125 -86.265625 C 69.828125 -72.578125 71.382812 -62.367188 74.5 -55.640625 C 77.613281 -48.921875 81.535156 -45.5625 86.265625 -45.5625 Z M 86.265625 -45.5625 "/></g></g></g></g></g></svg>